<?xml version="1.0" encoding="UTF-8"?>
<!-- Monochrome paw silhouette for CSS masking and notification badges. -->
<svg xmlns="http://www.w3.org/2000/svg" viewBox="0 0 800 800" role="img" aria-labelledby="title">
  <title id="title">Stepsemble paw</title>
  <g fill="#000000">
    <ellipse cx="224" cy="267" rx="69" ry="91" transform="rotate(-28 224 267)"/>
    <ellipse cx="342" cy="191" rx="68" ry="92" transform="rotate(-9 342 191)"/>
    <ellipse cx="458" cy="191" rx="68" ry="92" transform="rotate(9 458 191)"/>
    <ellipse cx="576" cy="267" rx="69" ry="91" transform="rotate(28 576 267)"/>
    <path d="M400 326c-87 0-163 61-186 146-25 93 36 178 126 161 37-7 49-30 60-30s23 23 60 30c90 17 151-68 126-161-23-85-99-146-186-146Z"/>
  </g>
</svg>
